<svg aria-hidden="true" style="position: absolute; width: 0; height: 0; overflow: hidden;" version="1.1"
     xmlns="http://www.w3.org/2000/svg" xmlns:xlink="http://www.w3.org/1999/xlink">
    <defs>
        <symbol id="icon-header" viewBox="0 0 28 28">
            <path d="M26.281 26c-1.375 0-2.766-0.109-4.156-0.109-1.375 0-2.75 0.109-4.125 0.109-0.531 0-0.781-0.578-0.781-1.031 0-1.391 1.563-0.797 2.375-1.328 0.516-0.328 0.516-1.641 0.516-2.188l-0.016-6.109c0-0.172 0-0.328-0.016-0.484-0.25-0.078-0.531-0.063-0.781-0.063h-10.547c-0.266 0-0.547-0.016-0.797 0.063-0.016 0.156-0.016 0.313-0.016 0.484l-0.016 5.797c0 0.594 0 2.219 0.578 2.562 0.812 0.5 2.656-0.203 2.656 1.203 0 0.469-0.219 1.094-0.766 1.094-1.453 0-2.906-0.109-4.344-0.109-1.328 0-2.656 0.109-3.984 0.109-0.516 0-0.75-0.594-0.75-1.031 0-1.359 1.437-0.797 2.203-1.328 0.5-0.344 0.516-1.687 0.516-2.234l-0.016-0.891v-12.703c0-0.75 0.109-3.156-0.594-3.578-0.781-0.484-2.453 0.266-2.453-1.141 0-0.453 0.203-1.094 0.75-1.094 1.437 0 2.891 0.109 4.328 0.109 1.313 0 2.641-0.109 3.953-0.109 0.562 0 0.781 0.625 0.781 1.094 0 1.344-1.547 0.688-2.312 1.172-0.547 0.328-0.547 1.937-0.547 2.5l0.016 5c0 0.172 0 0.328 0.016 0.5 0.203 0.047 0.406 0.047 0.609 0.047h10.922c0.187 0 0.391 0 0.594-0.047 0.016-0.172 0.016-0.328 0.016-0.5l0.016-5c0-0.578 0-2.172-0.547-2.5-0.781-0.469-2.344 0.156-2.344-1.172 0-0.469 0.219-1.094 0.781-1.094 1.375 0 2.75 0.109 4.125 0.109 1.344 0 2.688-0.109 4.031-0.109 0.562 0 0.781 0.625 0.781 1.094 0 1.359-1.609 0.672-2.391 1.156-0.531 0.344-0.547 1.953-0.547 2.516l0.016 14.734c0 0.516 0.031 1.875 0.531 2.188 0.797 0.5 2.484-0.141 2.484 1.219 0 0.453-0.203 1.094-0.75 1.094z"></path>
        </symbol>
        <symbol id="icon-pilcrow" viewBox="0 0 32 32">
            <path d="M12 0h16v4h-4v28h-4v-28h-4v28h-4v-16c-4.418 0-8-3.582-8-8s3.582-8 8-8z"></path>
        </symbol>
        <symbol id="icon-font-size" viewBox="0 0 32 32">
            <path d="M2 16h12v4h-4v12h-4v-12h-4zM30 8h-7.867v24h-4.266v-24h-7.867v-4h20z"></path>
        </symbol>
        <symbol id="icon-bold" viewBox="0 0 32 32">
            <path d="M22.121 15.145c1.172-1.392 1.879-3.188 1.879-5.145 0-4.411-3.589-8-8-8h-10v28h12c4.411 0 8-3.589 8-8 0-2.905-1.556-5.453-3.879-6.855zM12 6h3.172c1.749 0 3.172 1.794 3.172 4s-1.423 4-3.172 4h-3.172v-8zM16.969 26h-4.969v-8h4.969c1.827 0 3.313 1.794 3.313 4s-1.486 4-3.313 4z"></path>
        </symbol>
        <symbol id="icon-italic" viewBox="0 0 32 32">
            <path d="M28 2v2h-4l-10 24h4v2h-14v-2h4l10-24h-4v-2z"></path>
        </symbol>
        <symbol id="icon-image" viewBox="0 0 32 32">
            <path d="M29.996 4c0.001 0.001 0.003 0.002 0.004 0.004v23.993c-0.001 0.001-0.002 0.003-0.004 0.004h-27.993c-0.001-0.001-0.003-0.002-0.004-0.004v-23.993c0.001-0.001 0.002-0.003 0.004-0.004h27.993zM30 2h-28c-1.1 0-2 0.9-2 2v24c0 1.1 0.9 2 2 2h28c1.1 0 2-0.9 2-2v-24c0-1.1-0.9-2-2-2v0z"></path>
            <path d="M26 9c0 1.657-1.343 3-3 3s-3-1.343-3-3 1.343-3 3-3 3 1.343 3 3z"></path>
            <path d="M28 26h-24v-4l7-12 8 10h2l7-6z"></path>
        </symbol>
        <symbol id="icon-link" viewBox="0 0 32 32">
            <path d="M13.757 19.868c-0.416 0-0.832-0.159-1.149-0.476-2.973-2.973-2.973-7.81 0-10.783l6-6c1.44-1.44 3.355-2.233 5.392-2.233s3.951 0.793 5.392 2.233c2.973 2.973 2.973 7.81 0 10.783l-2.743 2.743c-0.635 0.635-1.663 0.635-2.298 0s-0.635-1.663 0-2.298l2.743-2.743c1.706-1.706 1.706-4.481 0-6.187-0.826-0.826-1.925-1.281-3.094-1.281s-2.267 0.455-3.094 1.281l-6 6c-1.706 1.706-1.706 4.481 0 6.187 0.635 0.635 0.635 1.663 0 2.298-0.317 0.317-0.733 0.476-1.149 0.476z"></path>
            <path d="M8 31.625c-2.037 0-3.952-0.793-5.392-2.233-2.973-2.973-2.973-7.81 0-10.783l2.743-2.743c0.635-0.635 1.664-0.635 2.298 0s0.635 1.663 0 2.298l-2.743 2.743c-1.706 1.706-1.706 4.481 0 6.187 0.826 0.826 1.925 1.281 3.094 1.281s2.267-0.455 3.094-1.281l6-6c1.706-1.706 1.706-4.481 0-6.187-0.635-0.635-0.635-1.663 0-2.298s1.663-0.635 2.298 0c2.973 2.973 2.973 7.81 0 10.783l-6 6c-1.44 1.44-3.355 2.233-5.392 2.233z"></path>
        </symbol>
        <symbol id="icon-quotes-left" viewBox="0 0 32 32">
            <path d="M7.031 14c3.866 0 7 3.134 7 7s-3.134 7-7 7-7-3.134-7-7l-0.031-1c0-7.732 6.268-14 14-14v4c-2.671 0-5.182 1.040-7.071 2.929-0.364 0.364-0.695 0.751-0.995 1.157 0.357-0.056 0.724-0.086 1.097-0.086zM25.031 14c3.866 0 7 3.134 7 7s-3.134 7-7 7-7-3.134-7-7l-0.031-1c0-7.732 6.268-14 14-14v4c-2.671 0-5.182 1.040-7.071 2.929-0.364 0.364-0.695 0.751-0.995 1.157 0.358-0.056 0.724-0.086 1.097-0.086z"></path>
        </symbol>
        <symbol id="icon-page-break" viewBox="0 0 32 32">
            <path d="M0 16h4v2h-4zM6 16h6v2h-6zM14 16h4v2h-4zM20 16h6v2h-6zM28 16h4v2h-4zM27.5 0l0.5 14h-24l0.5-14h1l0.5 12h20l0.5-12zM4.5 32l-0.5-12h24l-0.5 12h-1l-0.5-10h-20l-0.5 10z"></path>
        </symbol>


    </defs>
</svg>
